<svg width="345" height="345" viewBox="0 0 345 345" fill="none" xmlns="http://www.w3.org/2000/svg">
<g id="cookies-svgrepo-com (1) 1" clip-path="url(#clip0_1_3)">
<g id="cookie">
<path id="Vector" d="M323.189 167.352L306.788 170.632C301.33 171.724 295.844 168.885 293.584 163.798L276.015 124.267C274.528 120.92 271.582 118.446 268.029 117.557L258.877 115.27C253.58 113.946 249.866 109.188 249.866 103.728V40.2969C249.866 37.3328 248.758 34.4751 246.762 32.2838L224.664 8.0354C204.741 1.72635 183.265 -1.08823 160.937 0.38206C75.1217 6.03548 5.60354 75.8441 0.367223 161.685C-5.74238 261.855 73.6871 345 172.537 345C266.821 345 343.389 269.346 344.963 175.437L330.844 168.378C328.477 167.194 325.784 166.833 323.189 167.352Z" fill="#FFE6A1"/>
<g id="Group">
<path id="Vector_2" d="M226.071 291.465C225.024 291.465 223.993 291.405 222.95 291.386C216.414 298.718 206.925 303.361 196.33 303.361C180.724 303.361 167.493 293.328 162.643 279.375C141.297 270.927 122.043 258.359 105.862 242.626C103.414 243.364 100.871 243.879 98.1828 243.879C83.3997 243.879 71.4157 231.895 71.4157 217.111C71.4157 211.949 72.9466 207.17 75.4788 203.082C75.2976 202.758 75.1042 202.443 74.9243 202.117C56.357 200.859 41.6749 185.438 41.6749 166.551C41.6749 155.42 46.7731 145.485 54.7586 138.939C54.0019 132.382 53.5713 125.726 53.5713 118.965C53.5713 85.0385 63.4052 53.4272 80.3203 26.749C32.0836 57.3327 0.0370483 111.157 0.0370483 172.5C0.0370483 267.769 77.2679 345 172.537 345C233.88 345 287.704 312.953 318.288 264.717C291.61 281.632 259.999 291.465 226.071 291.465Z" fill="#FFD796"/>
<path id="Vector_3" d="M133.873 142.759C142.086 142.759 148.744 136.101 148.744 127.888C148.744 119.675 142.086 113.017 133.873 113.017C125.661 113.017 119.003 119.675 119.003 127.888C119.003 136.101 125.661 142.759 133.873 142.759Z" fill="#FFD796"/>
<path id="Vector_4" d="M291.503 240.905C299.716 240.905 306.373 234.247 306.373 226.034C306.373 217.821 299.716 211.164 291.503 211.164C283.29 211.164 276.632 217.821 276.632 226.034C276.632 234.247 283.29 240.905 291.503 240.905Z" fill="#FFD796"/>
<path id="Vector_5" d="M156.179 240.905C161.928 240.905 166.588 236.245 166.588 230.496C166.588 224.747 161.928 220.086 156.179 220.086C150.43 220.086 145.77 224.747 145.77 230.496C145.77 236.245 150.43 240.905 156.179 240.905Z" fill="#FFD796"/>
<path id="Vector_6" d="M236.481 145.732C242.23 145.732 246.891 141.072 246.891 135.323C246.891 129.574 242.23 124.914 236.481 124.914C230.732 124.914 226.072 129.574 226.072 135.323C226.072 141.072 230.732 145.732 236.481 145.732Z" fill="#FFD796"/>
<path id="Vector_7" d="M194.843 53.5343C200.592 53.5343 205.253 48.8739 205.253 43.125C205.253 37.3761 200.592 32.7157 194.843 32.7157C189.095 32.7157 184.434 37.3761 184.434 43.125C184.434 48.8739 189.095 53.5343 194.843 53.5343Z" fill="#FFD796"/>
</g>
<g id="Group_2">
<path id="Vector_8" d="M163.881 153.219L157.005 164.68C152.894 171.53 156.571 180.405 164.32 182.342L184.789 187.459C191.163 189.053 197.622 185.177 199.215 178.803L201.557 169.437C202.031 167.542 202.031 165.561 201.557 163.666L199.081 153.763C197.541 147.602 191.434 143.737 185.207 144.982L171.749 147.673C168.462 148.332 165.606 150.345 163.881 153.219Z" fill="#B97850"/>
<path id="Vector_9" d="M198.215 226.86L191.043 238.812C187.478 244.755 189.726 252.475 195.924 255.574L218.754 266.989C225.561 270.393 233.77 266.617 235.616 259.234L237.968 249.827L240.716 238.831C242.427 231.988 237.841 225.166 230.857 224.168L210.097 221.202C205.36 220.526 200.677 222.755 198.215 226.86Z" fill="#B97850"/>
<path id="Vector_10" d="M73.0517 155.896L64.2994 170.483C61.4909 175.164 62.2287 181.156 66.0884 185.016L79.8628 198.791C84.8767 203.805 93.1352 203.348 97.5649 197.811L109.374 183.049C111.693 180.151 112.526 176.335 111.625 172.732L108.932 161.959C107.817 157.499 104.232 154.081 99.7239 153.179L85.5856 150.351C80.6559 149.365 75.6386 151.584 73.0517 155.896Z" fill="#B97850"/>
<path id="Vector_11" d="M121.485 59.3097L114.736 70.5586C110.82 77.0846 113.955 85.5587 121.175 87.9656L135.821 92.8475C140.096 94.2719 144.808 93.1594 147.995 89.9736L155.878 82.0905C158.833 79.1357 160.021 74.8468 159.007 70.7931L156.945 62.5461C155.621 57.2491 150.863 53.5336 145.403 53.5336H131.686C127.508 53.5343 123.635 55.7269 121.485 59.3097Z" fill="#B97850"/>
<path id="Vector_12" d="M265.162 151.254L258.276 158.14C253.631 162.785 253.631 170.318 258.276 174.964L261.646 178.334C265.267 181.955 270.798 182.853 275.379 180.562L294.864 170.82C299.851 168.326 302.438 162.704 301.085 157.294L300.203 153.764C298.663 147.603 292.555 143.738 286.328 144.984L271.242 148.001C268.938 148.461 266.823 149.593 265.162 151.254Z" fill="#B97850"/>
<path id="Vector_13" d="M220.927 66.3424L213.027 76.877C210.125 80.7462 209.854 85.9885 212.343 90.136L219.653 102.319C223.148 108.144 230.802 109.865 236.453 106.098L251.297 96.2011C256.981 92.4128 258.313 84.6281 254.216 79.1647L246.146 68.405C244.694 66.4691 242.687 65.0217 240.391 64.2569L234.206 62.195C229.348 60.5744 223.999 62.2455 220.927 66.3424Z" fill="#B97850"/>
<path id="Vector_14" d="M119.125 254.293L111.358 264.003C106.371 270.236 108.817 279.515 116.229 282.48L126.664 286.654C129.5 287.789 132.664 287.789 135.5 286.654L147.21 281.969C154.226 279.164 156.882 270.612 152.691 264.325L150.679 261.308C149.531 259.585 147.953 258.193 146.101 257.266L133.737 251.084C128.717 248.575 122.629 249.913 119.125 254.293Z" fill="#B97850"/>
</g>
<g id="Group_3">
<path id="Vector_15" d="M94.6243 197.378L80.8499 183.604C76.9903 179.744 76.2517 173.752 79.0609 169.072L87.8133 154.484C88.5599 153.24 89.5464 152.23 90.6373 151.362L85.5863 150.353C80.6565 149.367 75.6386 151.586 73.0517 155.897L64.2994 170.485C61.4909 175.166 62.2287 181.157 66.0884 185.018L79.8628 198.792C84.5102 203.439 91.9075 203.328 96.4962 198.886C95.8386 198.45 95.2052 197.96 94.6243 197.378Z" fill="#A5694B"/>
<path id="Vector_16" d="M147.735 88.6124L133.09 83.7312C125.87 81.3243 122.734 72.8503 126.651 66.3242L133.4 55.0753C133.743 54.5026 134.196 54.0316 134.621 53.5343H131.685C127.506 53.5343 123.634 55.7269 121.484 59.3103L114.735 70.5586C110.818 77.0846 113.953 85.5587 121.174 87.9656L135.819 92.8474C140.094 94.2719 144.807 93.1594 147.994 89.9736L149.102 88.8651C148.646 88.7708 148.184 88.762 147.735 88.6124Z" fill="#A5694B"/>
<path id="Vector_17" d="M196.076 184.039L175.608 178.922C167.857 176.984 164.181 168.11 168.292 161.26L175.168 149.799C175.987 148.434 177.075 147.283 178.329 146.359L171.749 147.675C168.463 148.332 165.605 150.346 163.881 153.22L157.005 164.682C152.894 171.532 156.571 180.406 164.32 182.343L184.789 187.46C189.1 188.538 193.413 187.075 196.269 184.068C196.205 184.051 196.141 184.055 196.076 184.039Z" fill="#A5694B"/>
<path id="Vector_18" d="M230.765 101.291L223.455 89.107C220.966 84.9596 221.237 79.7186 224.139 75.8481L232.039 65.3142C232.905 64.1599 233.979 63.2556 235.143 62.5056L234.206 62.1937C229.348 60.5745 223.999 62.2456 220.926 66.3418L213.026 76.8757C210.124 80.7455 209.854 85.9872 212.342 90.1346L219.652 102.318C223.135 108.123 230.748 109.845 236.393 106.127C234.131 105.186 232.128 103.562 230.765 101.291Z" fill="#A5694B"/>
<path id="Vector_19" d="M271.194 177.542C266.548 172.896 266.548 165.363 271.194 160.717L278.079 153.832C279.74 152.171 281.855 151.039 284.159 150.578L296.857 148.039C294.14 145.457 290.261 144.196 286.328 144.983L271.241 148C268.938 148.461 266.823 149.593 265.162 151.254L258.276 158.139C253.631 162.785 253.631 170.317 258.276 174.964L261.646 178.333C265.043 181.73 270.097 182.62 274.493 180.842L271.194 177.542Z" fill="#A5694B"/>
<path id="Vector_20" d="M210.661 254.576C204.463 251.477 202.214 243.757 205.78 237.814L212.952 225.862C213.893 224.296 215.222 223.108 216.688 222.145L210.098 221.204C205.36 220.526 200.677 222.755 198.215 226.86L191.044 238.812C187.479 244.755 189.726 252.475 195.924 255.574L218.755 266.989C223.305 269.264 228.441 268.282 231.924 265.208L210.661 254.576Z" fill="#A5694B"/>
<path id="Vector_21" d="M138.56 284.665L128.126 280.492C120.714 277.528 118.268 268.248 123.254 262.014L131.022 252.304C131.515 251.688 132.069 251.149 132.654 250.655C127.866 248.822 122.383 250.219 119.125 254.293L111.358 264.002C106.371 270.236 108.817 279.515 116.229 282.48L126.664 286.654C129.5 287.789 132.664 287.789 135.5 286.654L139.662 284.989C139.294 284.882 138.918 284.809 138.56 284.665Z" fill="#A5694B"/>
</g>
<path id="Vector_22" d="M47.6161 243.873C46.7246 243.873 45.8149 243.67 44.9618 243.246C42.0226 241.776 40.8313 238.204 42.3016 235.265L48.2501 223.369C49.7204 220.429 53.2836 219.25 56.231 220.708C59.1702 222.179 60.3615 225.75 58.8912 228.689L52.9427 240.586C51.9003 242.67 49.8006 243.873 47.6161 243.873Z" fill="#C98850"/>
<path id="Vector_23" d="M154.692 321.206H148.744C145.459 321.206 142.795 318.546 142.795 315.258C142.795 311.97 145.459 309.309 148.744 309.309H154.692C157.977 309.309 160.641 311.97 160.641 315.258C160.641 318.546 157.977 321.206 154.692 321.206Z" fill="#925F4A"/>
<path id="Vector_24" d="M130.893 208.189C130.002 208.189 129.092 207.986 128.239 207.562C125.3 206.092 124.108 202.52 125.579 199.581L131.527 187.685C132.994 184.752 136.558 183.566 139.508 185.024C142.447 186.495 143.639 190.066 142.168 193.005L136.22 204.902C135.177 206.987 133.077 208.189 130.893 208.189Z" fill="#C98850"/>
<g id="Group_4">
<path id="Vector_25" d="M95.2038 113.017C94.3124 113.017 93.4027 112.814 92.5496 112.39L80.6532 106.441C77.714 104.971 76.5226 101.4 77.9929 98.4605C79.4598 95.5273 83.0264 94.3359 85.9737 95.8002L97.8702 101.748C100.809 103.218 102.001 106.79 100.53 109.729C99.488 111.814 97.3877 113.017 95.2038 113.017Z" fill="#925F4A"/>
<path id="Vector_26" d="M166.589 29.7408H154.693C151.408 29.7408 148.744 27.0805 148.744 23.7922C148.744 20.5039 151.408 17.8436 154.693 17.8436H166.589C169.874 17.8436 172.538 20.5039 172.538 23.7922C172.538 27.0805 169.874 29.7408 166.589 29.7408Z" fill="#925F4A"/>
</g>
<path id="Vector_27" d="M190.388 118.965C188.204 118.965 186.104 117.763 185.061 115.677L179.113 103.781C177.643 100.842 178.834 97.2691 181.773 95.8002C184.719 94.3359 188.288 95.5273 189.754 98.4604L195.703 110.357C197.173 113.296 195.982 116.869 193.042 118.338C192.188 118.762 191.28 118.965 190.388 118.965Z" fill="#C98850"/>
<g id="Group_5">
<path id="Vector_28" d="M27.1458 148.092C26.346 147.698 25.6203 147.114 25.0415 146.355C23.0537 143.738 23.5651 140.007 26.1829 138.02L36.7769 129.977C39.392 127.989 43.1203 128.505 45.1121 131.119C47.0999 133.736 46.5885 137.467 43.9707 139.454L33.3774 147.496C31.5197 148.906 29.1047 149.057 27.1458 148.092Z" fill="#925F4A"/>
<path id="Vector_29" d="M249.865 214.138C248.343 214.138 246.821 213.557 245.66 212.395L233.763 200.499C231.44 198.176 231.44 194.411 233.763 192.088C236.086 189.764 239.851 189.764 242.175 192.088L254.071 203.984C256.394 206.307 256.394 210.072 254.071 212.395C252.909 213.557 251.386 214.138 249.865 214.138Z" fill="#925F4A"/>
</g>
<path id="Vector_30" d="M261.761 273.621C260.239 273.621 258.717 273.04 257.556 271.878C255.233 269.555 255.233 265.79 257.556 263.467L263.505 257.518C265.828 255.195 269.593 255.195 271.916 257.518C274.239 259.842 274.239 263.606 271.916 265.93L265.967 271.878C264.805 273.04 263.284 273.621 261.761 273.621Z" fill="#C98850"/>
</g>
<g id="crumbs">
<g id="Group_6">
<path id="Vector_31" d="M278.001 13.9486V28.9561C278.001 33.1648 282.251 36.042 286.158 34.4787L304.003 27.3409C306.261 26.4373 307.742 24.25 307.742 21.8182V13.9486C307.742 10.6636 305.078 8 301.794 8H283.949C280.664 8 278.001 10.6636 278.001 13.9486Z" fill="#FFE6A1"/>
<path id="Vector_32" d="M290.718 60.843L286.922 87.4147C286.029 93.6651 290.175 99.5247 296.366 100.763L307.26 102.941C311.987 103.887 316.817 101.886 319.492 97.8745L323.589 91.7292C325.71 88.5454 326.173 84.5354 324.829 80.9534L312.419 47.861C310.875 43.7452 305.596 42.6018 302.488 45.7101L294.084 54.1134C292.263 55.9334 291.082 58.2952 290.718 60.843Z" fill="#FFE6A1"/>
</g>
<g id="Group_7">
<path id="Vector_33" d="M320.539 92.3747L309.645 90.1963C303.454 88.9578 299.309 83.0982 300.201 76.8484L303.997 50.2773C304.336 47.9075 305.441 45.7431 307.049 43.9818C305.434 43.9002 303.777 44.4197 302.488 45.7081L294.083 54.1121C292.263 55.9321 291.082 58.2939 290.719 60.8416L286.923 87.4127C286.03 93.6638 290.176 99.5227 296.367 100.761L307.26 102.939C311.987 103.884 316.818 101.884 319.492 97.8725L323.076 92.4967C322.233 92.5136 321.388 92.5452 320.539 92.3747Z" fill="#FFD796"/>
<path id="Vector_34" d="M298.054 22.5816C294.147 24.1442 289.897 21.267 289.897 17.0589V8H283.949C280.664 8 278 10.6636 278 13.9486V28.9561C278 33.1648 282.25 36.042 286.157 34.4787L304.002 27.3409C306.26 26.4373 307.741 24.2507 307.741 21.8182V18.7071L298.054 22.5816Z" fill="#FFD796"/>
<path id="Vector_35" d="M322.604 119.883L319.088 126.915C318.251 128.59 318.251 130.561 319.088 132.235L320.692 135.445C322.293 138.645 326.335 139.719 329.312 137.735L338.901 131.342C340.556 130.238 341.55 128.381 341.55 126.393V119.984C341.55 115.924 337.573 113.057 333.721 114.342L326.043 116.901C324.547 117.399 323.31 118.471 322.604 119.883Z" fill="#FFD796"/>
</g>
</g>
</g>
<defs>
<clipPath id="clip0_1_3">
<rect width="345" height="345" fill="white"/>
</clipPath>
</defs>
</svg>
